<svg width="67" height="66" viewBox="0 0 67 66" fill="none" xmlns="http://www.w3.org/2000/svg">
<path d="M33.2996 50.6C42.7989 50.6 50.4996 42.8993 50.4996 33.4C50.4996 23.9007 42.7989 16.2 33.2996 16.2C23.8003 16.2 16.0996 23.9007 16.0996 33.4C16.0996 42.8993 23.8003 50.6 33.2996 50.6Z" stroke="#94DFCB" stroke-miterlimit="10"/>
<path d="M61.3 37.8L65.4 37.2C65.6 35.9 65.6 34.6 65.6 33.4C65.6 32.4 65.5 31.4 65.5 30.4L61.3 29.7C61 27.5 60.4 25.4 59.6 23.4L63 20.7C62.1 18.6 61 16.6 59.7 14.8L55.6 16.4C54.2 14.7 52.7 13.1 51 11.8L52.7 7.5C50.9 6.2 49 5 47 4.1L44 7.7C42 6.9 39.8 6.3 37.7 6L37 1.2C35.8 1.1 34.5 1 33.3 1C32.3 1 31.3 1.1 30.4 1.1L29.6 6.1C27.4 6.4 25.3 7 23.3 7.8L20.2 3.8C18.2 4.7 16.3 5.8 14.5 7.1L16.3 11.8C14.6 13.2 13 14.7 11.7 16.4L7 14.6C5.7 16.4 4.6 18.3 3.7 20.3L7.6 23.4C6.8 25.4 6.2 27.6 5.9 29.7L1.1 30.4C1 31.4 1 32.4 1 33.3C1 34.5 1.1 35.8 1.2 37L5.9 37.7C6.2 39.9 6.8 42 7.6 44L3.9 46.9C4.9 49 6 50.9 7.4 52.7L11.6 51.1C13 52.8 14.5 54.4 16.2 55.7L14.6 59.7C16.5 61 18.4 62.1 20.5 63L23.2 59.6C25.2 60.4 27.4 61 29.5 61.3L30.1 65.4C31.1 65.5 32.1 65.5 33.2 65.5C34.5 65.5 35.7 65.4 37 65.3L37.6 61.2C39.8 60.9 41.9 60.3 43.9 59.5L46.4 62.7C48.5 61.8 50.5 60.6 52.4 59.2L51 55.6C52.7 54.2 54.3 52.7 55.6 51L59.3 52.4C60.7 50.5 61.8 48.6 62.8 46.5L59.6 44.1C60.4 42.1 61 40 61.3 37.8Z" stroke="#94DFCB"/>
<path d="M34.9371 24.2696H31.7709L32.0327 36.0999H34.6671L34.9371 24.2696ZM33.3499 41.2051C34.3153 41.2051 35.1417 40.4034 35.1499 39.4052C35.1417 38.4235 34.3153 37.6217 33.3499 37.6217C32.3518 37.6217 31.5418 38.4235 31.55 39.4052C31.5418 40.4034 32.3518 41.2051 33.3499 41.2051Z" fill="#94DFCB"/>
</svg>
