<svg width="160" height="34" viewBox="0 0 160 34" fill="none" xmlns="http://www.w3.org/2000/svg">
<path fill-rule="evenodd" clip-rule="evenodd" d="M17.919 0.501221L16.9697 2.14351C16.9485 2.18031 16.9272 2.21707 16.9059 2.25389L0 31.5012H35.8381L17.919 0.501221ZM11.9643 15.198L3.82445 29.28C8.0581 29.1787 11.8654 28.6861 14.7078 27.255C15.6141 26.7987 16.4146 26.2503 17.0981 25.5918C15.2902 24.3576 13.9881 22.9373 13.1404 21.3489C12.1238 19.4439 11.8039 17.3782 11.9601 15.2537C11.9614 15.2351 11.9628 15.2166 11.9643 15.198ZM15.5309 29.3018H31.9974C29.7547 25.6235 27.3239 22.4082 24.5943 20.492C23.7582 19.905 22.904 19.4473 22.0264 19.1349C21.8763 21.4557 21.3009 23.3991 20.3434 25.0084C19.2159 26.9032 17.6032 28.2597 15.6969 29.2195C15.6418 29.2472 15.5865 29.2747 15.5309 29.3018ZM25.9187 18.7356L17.9318 4.91833C15.8851 8.66608 14.3882 12.2365 14.1546 15.4136C14.0977 16.1884 14.1165 16.9334 14.2194 17.6482C16.1817 16.7331 18.0669 16.3613 19.8769 16.4695C22.0707 16.6005 24.0603 17.4309 25.8587 18.6934C25.8787 18.7074 25.8987 18.7215 25.9187 18.7356ZM15.0822 20.3137C14.9912 20.1432 14.907 19.9705 14.8296 19.7956C16.6325 18.8955 18.2618 18.5753 19.7467 18.6641C19.7809 18.6661 19.8151 18.6684 19.8492 18.6708C19.7518 20.8495 19.2476 22.5393 18.4663 23.8616C16.8335 22.7723 15.7547 21.5739 15.0822 20.3137Z" fill="#1F267B"/>
<path d="M77.4086 8.15809C76.828 8.15809 76.3411 7.96143 75.9478 7.56812C75.5544 7.1748 75.3578 6.68785 75.3578 6.10724C75.3578 5.52664 75.5544 5.03968 75.9478 4.64637C76.3411 4.25305 76.828 4.0564 77.4086 4.0564C77.9705 4.0564 78.4481 4.25305 78.8414 4.64637C79.2347 5.03968 79.4314 5.52664 79.4314 6.10724C79.4314 6.68785 79.2347 7.1748 78.8414 7.56812C78.4481 7.96143 77.9705 8.15809 77.4086 8.15809ZM78.9819 10.2089V25.6886H75.7792V10.2089H78.9819Z" fill="#1F267B"/>
<path d="M60.5037 12.4845C61.0469 11.7728 61.7867 11.1734 62.7231 10.6865C63.6596 10.1995 64.7178 9.95605 65.8977 9.95605C67.2462 9.95605 68.473 10.2932 69.578 10.9674C70.7017 11.6229 71.582 12.55 72.2188 13.7487C72.8556 14.9474 73.174 16.324 73.174 17.8785C73.174 19.433 72.8556 20.8283 72.2188 22.0645C71.582 23.2819 70.7017 24.237 69.578 24.93C68.473 25.6043 67.2462 25.9414 65.8977 25.9414C64.7178 25.9414 63.6689 25.7073 62.7512 25.2391C61.8335 24.7521 61.0843 24.1528 60.5037 23.4411V33.0491H57.301V10.2089H60.5037V12.4845ZM69.9151 17.8785C69.9151 16.8109 69.6904 15.8932 69.2409 15.1253C68.8101 14.3387 68.2295 13.7487 67.4991 13.3554C66.7873 12.9434 66.0195 12.7373 65.1954 12.7373C64.39 12.7373 63.6221 12.9434 62.8917 13.3554C62.18 13.7674 61.5994 14.3668 61.1499 15.1534C60.7191 15.94 60.5037 16.8671 60.5037 17.9347C60.5037 19.0022 60.7191 19.9387 61.1499 20.7441C61.5994 21.5307 62.18 22.13 62.8917 22.5421C63.6221 22.9541 64.39 23.1601 65.1954 23.1601C66.0195 23.1601 66.7873 22.9541 67.4991 22.5421C68.2295 22.1113 68.8101 21.4932 69.2409 20.6879C69.6904 19.8825 69.9151 18.9461 69.9151 17.8785Z" fill="#1F267B"/>
<path d="M37.7551 17.8785C37.7551 16.324 38.0735 14.9474 38.7103 13.7487C39.3658 12.55 40.2461 11.6229 41.3511 10.9674C42.4749 10.2932 43.711 9.95605 45.0595 9.95605C46.2769 9.95605 47.3351 10.1995 48.2341 10.6865C49.1518 11.1547 49.8823 11.7447 50.4254 12.4564V10.2089H53.6562V25.6886H50.4254V23.3849C49.8823 24.1153 49.1425 24.724 48.206 25.211C47.2695 25.6979 46.202 25.9414 45.0033 25.9414C43.6735 25.9414 42.4561 25.6043 41.3511 24.93C40.2461 24.237 39.3658 23.2819 38.7103 22.0645C38.0735 20.8283 37.7551 19.433 37.7551 17.8785ZM50.4254 17.9347C50.4254 16.8671 50.2007 15.94 49.7512 15.1534C49.3204 14.3668 48.7491 13.7674 48.0374 13.3554C47.3257 12.9434 46.5578 12.7373 45.7338 12.7373C44.9097 12.7373 44.1418 12.9434 43.4301 13.3554C42.7184 13.7487 42.1378 14.3387 41.6883 15.1253C41.2575 15.8932 41.0421 16.8109 41.0421 17.8785C41.0421 18.9461 41.2575 19.8825 41.6883 20.6879C42.1378 21.4932 42.7184 22.1113 43.4301 22.5421C44.1605 22.9541 44.9284 23.1601 45.7338 23.1601C46.5578 23.1601 47.3257 22.9541 48.0374 22.5421C48.7491 22.13 49.3204 21.5307 49.7512 20.7441C50.2007 19.9387 50.4254 19.0022 50.4254 17.9347Z" fill="#1F267B"/>
<path d="M82.8184 10.2652C82.9308 8.52337 83.5957 7.16551 84.8131 6.19159C86.0492 5.21767 87.6224 4.73071 89.5328 4.73071C90.8439 4.73071 91.977 4.96483 92.9322 5.43306C93.8874 5.90129 94.6084 6.53808 95.0954 7.34343C95.5823 8.14879 95.8258 9.05715 95.8258 10.0685C95.8258 11.2297 95.5168 12.2224 94.8987 13.0465C94.2807 13.8705 93.5409 14.4231 92.6793 14.704V14.8164C93.7843 15.1535 94.6459 15.7716 95.2639 16.6706C95.882 17.5508 96.191 18.6839 96.191 20.0699C96.191 21.1749 95.9382 22.1582 95.4325 23.0197C94.9268 23.8813 94.1777 24.5649 93.185 25.0706C92.1924 25.5575 91.0031 25.801 89.6171 25.801C87.5944 25.801 85.9275 25.286 84.6164 24.2559C83.3241 23.207 82.6311 21.7087 82.5375 19.7609H85.6278C85.7027 20.7535 86.0867 21.5682 86.7796 22.205C87.4726 22.8231 88.4091 23.1321 89.589 23.1321C90.7315 23.1321 91.6118 22.8231 92.2298 22.205C92.8479 21.5682 93.1569 20.7535 93.1569 19.7609C93.1569 18.4498 92.7355 17.5227 91.8927 16.9796C91.0686 16.4177 89.795 16.1368 88.0719 16.1368H87.3415V13.496H88.1C89.6171 13.4772 90.7689 13.2244 91.5556 12.7374C92.3609 12.2505 92.7636 11.4826 92.7636 10.4337C92.7636 9.53475 92.4733 8.82304 91.8927 8.29862C91.3121 7.75547 90.488 7.4839 89.4204 7.4839C88.3716 7.4839 87.5569 7.75547 86.9763 8.29862C86.3957 8.82304 86.0492 9.47856 85.9368 10.2652H82.8184Z" fill="#1F267B"/>
<path d="M147.104 25.7068C145.287 25.7068 143.611 25.2854 142.075 24.4426C140.558 23.5811 139.35 22.3918 138.451 20.8747C137.571 19.3389 137.131 17.6158 137.131 15.7055C137.131 13.7951 137.571 12.0814 138.451 10.5643C139.35 9.04724 140.558 7.8673 142.075 7.02449C143.611 6.16295 145.287 5.73218 147.104 5.73218C148.939 5.73218 150.616 6.16295 152.133 7.02449C153.669 7.8673 154.877 9.04724 155.757 10.5643C156.637 12.0814 157.077 13.7951 157.077 15.7055C157.077 17.6158 156.637 19.3389 155.757 20.8747C154.877 22.3918 153.669 23.5811 152.133 24.4426C150.616 25.2854 148.939 25.7068 147.104 25.7068ZM147.104 22.9256C148.396 22.9256 149.548 22.6353 150.56 22.0546C151.571 21.4553 152.358 20.6125 152.919 19.5262C153.5 18.4212 153.79 17.1476 153.79 15.7055C153.79 14.2633 153.5 12.9991 152.919 11.9128C152.358 10.8265 151.571 9.99306 150.56 9.41246C149.548 8.83186 148.396 8.54155 147.104 8.54155C145.812 8.54155 144.66 8.83186 143.648 9.41246C142.637 9.99306 141.841 10.8265 141.261 11.9128C140.699 12.9991 140.418 14.2633 140.418 15.7055C140.418 17.1476 140.699 18.4212 141.261 19.5262C141.841 20.6125 142.637 21.4553 143.648 22.0546C144.66 22.6353 145.812 22.9256 147.104 22.9256Z" fill="#8E9BB2"/>
<path d="M131.737 21.521H123.562L122.157 25.5103H118.814L125.809 5.95703H129.518L136.513 25.5103H133.142L131.737 21.521ZM130.838 18.9082L127.663 9.83397L124.461 18.9082H130.838Z" fill="#8E9BB2"/>
<path d="M107.781 5.98511C109.86 5.98511 111.677 6.38779 113.231 7.19314C114.805 7.97977 116.013 9.12224 116.855 10.6206C117.717 12.1002 118.148 13.8326 118.148 15.8179C118.148 17.8032 117.717 19.5263 116.855 20.9872C116.013 22.448 114.805 23.5718 113.231 24.3584C111.677 25.1263 109.86 25.5103 107.781 25.5103H101.404V5.98511H107.781ZM107.781 22.8975C110.066 22.8975 111.817 22.2795 113.035 21.0434C114.252 19.8072 114.861 18.0654 114.861 15.8179C114.861 13.5517 114.252 11.7818 113.035 10.5082C111.817 9.23462 110.066 8.59783 107.781 8.59783H104.607V22.8975H107.781Z" fill="#8E9BB2"/>
</svg>
