<svg width="160" height="33" viewBox="0 0 160 33" fill="none" xmlns="http://www.w3.org/2000/svg">
<path fill-rule="evenodd" clip-rule="evenodd" d="M17.919 0.000488281L16.9697 1.64278C16.9485 1.67958 16.9272 1.71634 16.9059 1.75316L0 31.0005H35.8381L17.919 0.000488281ZM11.9643 14.6973L3.82445 28.7792C8.0581 28.678 11.8654 28.1854 14.7078 26.7543C15.6141 26.2979 16.4146 25.7496 17.0981 25.0911C15.2902 23.8569 13.9881 22.4365 13.1404 20.8481C12.1238 18.9432 11.8039 16.8775 11.9601 14.7529C11.9614 14.7344 11.9628 14.7158 11.9643 14.6973ZM15.5309 28.801H31.9974C29.7547 25.1228 27.3239 21.9075 24.5943 19.9913C23.7582 19.4043 22.904 18.9466 22.0264 18.6342C21.8763 20.9549 21.3009 22.8984 20.3434 24.5076C19.2159 26.4025 17.6032 27.759 15.6969 28.7188C15.6418 28.7465 15.5865 28.7739 15.5309 28.801ZM25.9187 18.2349L17.9318 4.4176C15.8851 8.16535 14.3882 11.7357 14.1546 14.9129C14.0977 15.6876 14.1165 16.4326 14.2194 17.1475C16.1817 16.2324 18.0669 15.8606 19.8769 15.9687C22.0707 16.0998 24.0603 16.9301 25.8587 18.1926C25.8787 18.2067 25.8987 18.2208 25.9187 18.2349ZM15.0822 19.813C14.9912 19.6425 14.907 19.4697 14.8296 19.2948C16.6325 18.3948 18.2618 18.0746 19.7467 18.1633C19.7809 18.1654 19.8151 18.1676 19.8492 18.1701C19.7518 20.3487 19.2476 22.0386 18.4663 23.3608C16.8335 22.2716 15.7547 21.0731 15.0822 19.813Z" fill="#FAFAFA"/>
<path d="M77.4088 7.65686C76.8282 7.65686 76.3412 7.46021 75.9479 7.06689C75.5546 6.67358 75.3579 6.18662 75.3579 5.60602C75.3579 5.02542 75.5546 4.53846 75.9479 4.14515C76.3412 3.75183 76.8282 3.55518 77.4088 3.55518C77.9706 3.55518 78.4482 3.75183 78.8415 4.14515C79.2348 4.53846 79.4315 5.02542 79.4315 5.60602C79.4315 6.18662 79.2348 6.67358 78.8415 7.06689C78.4482 7.46021 77.9706 7.65686 77.4088 7.65686ZM78.982 9.70771V25.1874H75.7793V9.70771H78.982Z" fill="#FAFAFA"/>
<path d="M60.5035 11.9835C61.0466 11.2718 61.7864 10.6725 62.7229 10.1855C63.6593 9.69856 64.7175 9.45508 65.8975 9.45508C67.246 9.45508 68.4727 9.7922 69.5778 10.4665C70.7015 11.122 71.5818 12.0491 72.2186 13.2477C72.8554 14.4464 73.1738 15.823 73.1738 17.3775C73.1738 18.932 72.8554 20.3274 72.2186 21.5635C71.5818 22.7809 70.7015 23.7361 69.5778 24.429C68.4727 25.1033 67.246 25.4404 65.8975 25.4404C64.7175 25.4404 63.6687 25.2063 62.751 24.7381C61.8332 24.2511 61.0841 23.6518 60.5035 22.9401V32.5481H57.3008V9.70792H60.5035V11.9835ZM69.9149 17.3775C69.9149 16.31 69.6901 15.3922 69.2406 14.6243C68.8099 13.8377 68.2293 13.2477 67.4988 12.8544C66.7871 12.4424 66.0192 12.2364 65.1951 12.2364C64.3898 12.2364 63.6219 12.4424 62.8914 12.8544C62.1797 13.2665 61.5991 13.8658 61.1496 14.6524C60.7189 15.439 60.5035 16.3661 60.5035 17.4337C60.5035 18.5013 60.7189 19.4377 61.1496 20.2431C61.5991 21.0297 62.1797 21.629 62.8914 22.0411C63.6219 22.4531 64.3898 22.6591 65.1951 22.6591C66.0192 22.6591 66.7871 22.4531 67.4988 22.0411C68.2293 21.6103 68.8099 20.9922 69.2406 20.1869C69.6901 19.3815 69.9149 18.4451 69.9149 17.3775Z" fill="#FAFAFA"/>
<path d="M37.7554 17.3775C37.7554 15.823 38.0738 14.4464 38.7106 13.2477C39.3661 12.0491 40.2464 11.122 41.3514 10.4665C42.4751 9.7922 43.7112 9.45508 45.0597 9.45508C46.2771 9.45508 47.3353 9.69856 48.2343 10.1855C49.1521 10.6537 49.8825 11.2437 50.4257 11.9554V9.70792H53.6564V25.1876H50.4257V22.8839C49.8825 23.6143 49.1427 24.223 48.2062 24.71C47.2698 25.1969 46.2022 25.4404 45.0036 25.4404C43.6738 25.4404 42.4564 25.1033 41.3514 24.429C40.2464 23.7361 39.3661 22.7809 38.7106 21.5635C38.0738 20.3274 37.7554 18.932 37.7554 17.3775ZM50.4257 17.4337C50.4257 16.3661 50.2009 15.439 49.7514 14.6524C49.3206 13.8658 48.7494 13.2665 48.0377 12.8544C47.326 12.4424 46.5581 12.2364 45.734 12.2364C44.9099 12.2364 44.142 12.4424 43.4303 12.8544C42.7186 13.2477 42.138 13.8377 41.6885 14.6243C41.2577 15.3922 41.0423 16.31 41.0423 17.3775C41.0423 18.4451 41.2577 19.3815 41.6885 20.1869C42.138 20.9922 42.7186 21.6103 43.4303 22.0411C44.1607 22.4531 44.9286 22.6591 45.734 22.6591C46.5581 22.6591 47.326 22.4531 48.0377 22.0411C48.7494 21.629 49.3206 21.0297 49.7514 20.2431C50.2009 19.4377 50.4257 18.5013 50.4257 17.4337Z" fill="#FAFAFA"/>
<path d="M82.8185 9.76396C82.9309 8.02215 83.5958 6.66428 84.8132 5.69037C86.0493 4.71645 87.6226 4.22949 89.5329 4.22949C90.844 4.22949 91.9771 4.46361 92.9323 4.93184C93.8875 5.40007 94.6085 6.03686 95.0955 6.84221C95.5825 7.64757 95.8259 8.55593 95.8259 9.5673C95.8259 10.7285 95.5169 11.7212 94.8988 12.5452C94.2808 13.3693 93.541 13.9218 92.6794 14.2028V14.3152C93.7845 14.6523 94.646 15.2703 95.2641 16.1693C95.8821 17.0496 96.1912 18.1827 96.1912 19.5687C96.1912 20.6737 95.9383 21.657 95.4326 22.5185C94.9269 23.3801 94.1778 24.0637 93.1851 24.5694C92.1925 25.0563 91.0032 25.2998 89.6172 25.2998C87.5945 25.2998 85.9276 24.7848 84.6165 23.7547C83.3242 22.7058 82.6312 21.2075 82.5376 19.2597H85.6279C85.7028 20.2523 86.0868 21.067 86.7798 21.7038C87.4727 22.3219 88.4092 22.6309 89.5891 22.6309C90.7316 22.6309 91.6119 22.3219 92.2299 21.7038C92.848 21.067 93.157 20.2523 93.157 19.2597C93.157 17.9486 92.7356 17.0215 91.8928 16.4784C91.0687 15.9165 89.7952 15.6356 88.0721 15.6356H87.3416V12.9947H88.1002C89.6172 12.976 90.7691 12.7232 91.5557 12.2362C92.361 11.7493 92.7637 10.9814 92.7637 9.93252C92.7637 9.03352 92.4734 8.32182 91.8928 7.7974C91.3122 7.25425 90.4881 6.98268 89.4206 6.98268C88.3717 6.98268 87.557 7.25425 86.9764 7.7974C86.3958 8.32182 86.0493 8.97734 85.9369 9.76396H82.8185Z" fill="#FAFAFA"/>
<path d="M147.104 25.2061C145.287 25.2061 143.611 24.7847 142.075 23.9419C140.558 23.0803 139.35 21.891 138.451 20.374C137.571 18.8382 137.131 17.1151 137.131 15.2047C137.131 13.2944 137.571 11.5806 138.451 10.0636C139.35 8.54651 140.558 7.36657 142.075 6.52376C143.611 5.66222 145.287 5.23145 147.104 5.23145C148.94 5.23145 150.616 5.66222 152.133 6.52376C153.669 7.36657 154.877 8.54651 155.757 10.0636C156.637 11.5806 157.077 13.2944 157.077 15.2047C157.077 17.1151 156.637 18.8382 155.757 20.374C154.877 21.891 153.669 23.0803 152.133 23.9419C150.616 24.7847 148.94 25.2061 147.104 25.2061ZM147.104 22.4248C148.396 22.4248 149.548 22.1345 150.56 21.5539C151.571 20.9546 152.358 20.1118 152.92 19.0255C153.5 17.9205 153.79 16.6469 153.79 15.2047C153.79 13.7626 153.5 12.4984 152.92 11.4121C152.358 10.3258 151.571 9.49233 150.56 8.91173C149.548 8.33112 148.396 8.04082 147.104 8.04082C145.812 8.04082 144.66 8.33112 143.649 8.91173C142.637 9.49233 141.841 10.3258 141.261 11.4121C140.699 12.4984 140.418 13.7626 140.418 15.2047C140.418 16.6469 140.699 17.9205 141.261 19.0255C141.841 20.1118 142.637 20.9546 143.649 21.5539C144.66 22.1345 145.812 22.4248 147.104 22.4248Z" fill="#8E9BB2"/>
<path d="M131.737 21.02H123.562L122.157 25.0093H118.814L125.809 5.45605H129.518L136.513 25.0093H133.142L131.737 21.02ZM130.838 18.4073L127.663 9.33299L124.461 18.4073H130.838Z" fill="#8E9BB2"/>
<path d="M107.781 5.48389C109.86 5.48389 111.677 5.88656 113.231 6.69192C114.805 7.47854 116.013 8.62102 116.855 10.1194C117.717 11.599 118.148 13.3314 118.148 15.3167C118.148 17.302 117.717 19.0251 116.855 20.486C116.013 21.9468 114.805 23.0706 113.231 23.8572C111.677 24.6251 109.86 25.009 107.781 25.009H101.404V5.48389H107.781ZM107.781 22.3963C110.066 22.3963 111.817 21.7783 113.035 20.5421C114.252 19.306 114.861 17.5642 114.861 15.3167C114.861 13.0505 114.252 11.2806 113.035 10.007C111.817 8.7334 110.066 8.09661 107.781 8.09661H104.606V22.3963H107.781Z" fill="#8E9BB2"/>
</svg>
