<svg width="14" height="14" viewBox="0 0 14 14" fill="none" xmlns="http://www.w3.org/2000/svg">
    <mask id="path-1-inside-1_9807_130300" fill="white">
        <path
            d="M13.6673 6.9987C13.6673 10.6806 10.6825 13.6654 7.00065 13.6654C3.31875 13.6654 0.333984 10.6806 0.333984 6.9987C0.333984 3.3168 3.31875 0.332031 7.00065 0.332031C10.6825 0.332031 13.6673 3.3168 13.6673 6.9987Z" />
    </mask>
    <path
        d="M13.6673 6.9987C13.6673 10.6806 10.6825 13.6654 7.00065 13.6654C3.31875 13.6654 0.333984 10.6806 0.333984 6.9987C0.333984 3.3168 3.31875 0.332031 7.00065 0.332031C10.6825 0.332031 13.6673 3.3168 13.6673 6.9987Z"
        fill="#0C1143" />
    <path
        d="M12.6673 6.9987C12.6673 10.1283 10.1303 12.6654 7.00065 12.6654V14.6654C11.2348 14.6654 14.6673 11.2329 14.6673 6.9987H12.6673ZM7.00065 12.6654C3.87104 12.6654 1.33398 10.1283 1.33398 6.9987H-0.666016C-0.666016 11.2329 2.76647 14.6654 7.00065 14.6654V12.6654ZM1.33398 6.9987C1.33398 3.86908 3.87104 1.33203 7.00065 1.33203V-0.667969C2.76647 -0.667969 -0.666016 2.76451 -0.666016 6.9987H1.33398ZM7.00065 1.33203C10.1303 1.33203 12.6673 3.86908 12.6673 6.9987H14.6673C14.6673 2.76451 11.2348 -0.667969 7.00065 -0.667969V1.33203Z"
        fill="#8E9BB2" mask="url(#path-1-inside-1_9807_130300)" />
</svg>
    