<svg xmlns="http://www.w3.org/2000/svg" width="14" height="14" viewBox="0 0 14 14" fill="none">
<mask id="path-1-inside-1_10067_137886" fill="white">
<path fill-rule="evenodd" clip-rule="evenodd" d="M7.00065 13.6654C10.6825 13.6654 13.6673 10.6806 13.6673 6.9987C13.6673 3.3168 10.6825 0.332031 7.00065 0.332031C3.31875 0.332031 0.333984 3.3168 0.333984 6.9987C0.333984 10.6806 3.31875 13.6654 7.00065 13.6654ZM10.8736 5.25933C11.1665 4.96644 11.1665 4.49157 10.8736 4.19867C10.5807 3.90578 10.1059 3.90578 9.81296 4.19867L5.80579 8.20584L4.53082 6.93087C4.23793 6.63798 3.76305 6.63798 3.47016 6.93087C3.17726 7.22376 3.17726 7.69864 3.47016 7.99153L5.27546 9.79683C5.56835 10.0897 6.04323 10.0897 6.33612 9.79683L10.8736 5.25933Z"/>
</mask>
<path fill-rule="evenodd" clip-rule="evenodd" d="M7.00065 13.6654C10.6825 13.6654 13.6673 10.6806 13.6673 6.9987C13.6673 3.3168 10.6825 0.332031 7.00065 0.332031C3.31875 0.332031 0.333984 3.3168 0.333984 6.9987C0.333984 10.6806 3.31875 13.6654 7.00065 13.6654ZM10.8736 5.25933C11.1665 4.96644 11.1665 4.49157 10.8736 4.19867C10.5807 3.90578 10.1059 3.90578 9.81296 4.19867L5.80579 8.20584L4.53082 6.93087C4.23793 6.63798 3.76305 6.63798 3.47016 6.93087C3.17726 7.22376 3.17726 7.69864 3.47016 7.99153L5.27546 9.79683C5.56835 10.0897 6.04323 10.0897 6.33612 9.79683L10.8736 5.25933Z" fill="#159951"/>
<path d="M10.8736 4.19867L11.345 3.72727L11.345 3.72727L10.8736 4.19867ZM10.8736 5.25933L11.345 5.73074L11.345 5.73074L10.8736 5.25933ZM9.81296 4.19867L9.34156 3.72727V3.72727L9.81296 4.19867ZM5.80579 8.20584L5.33439 8.67725L5.80579 9.14865L6.2772 8.67725L5.80579 8.20584ZM3.47016 6.93087L2.99875 6.45947H2.99875L3.47016 6.93087ZM3.47016 7.99153L2.99875 8.46294H2.99875L3.47016 7.99153ZM13.0007 6.9987C13.0007 10.3124 10.3144 12.9987 7.00065 12.9987V14.332C11.0507 14.332 14.334 11.0488 14.334 6.9987H13.0007ZM7.00065 0.998698C10.3144 0.998698 13.0007 3.68499 13.0007 6.9987H14.334C14.334 2.94861 11.0507 -0.334635 7.00065 -0.334635V0.998698ZM1.00065 6.9987C1.00065 3.68499 3.68694 0.998698 7.00065 0.998698V-0.334635C2.95056 -0.334635 -0.332682 2.94861 -0.332682 6.9987H1.00065ZM7.00065 12.9987C3.68694 12.9987 1.00065 10.3124 1.00065 6.9987H-0.332682C-0.332682 11.0488 2.95056 14.332 7.00065 14.332V12.9987ZM10.4022 4.67008C10.4348 4.70262 10.4348 4.75539 10.4022 4.78793L11.345 5.73074C11.8983 5.1775 11.8983 4.28051 11.345 3.72727L10.4022 4.67008ZM10.2844 4.67008C10.3169 4.63753 10.3697 4.63753 10.4022 4.67008L11.345 3.72727C10.7918 3.17403 9.8948 3.17403 9.34156 3.72727L10.2844 4.67008ZM6.2772 8.67725L10.2844 4.67008L9.34156 3.72727L5.33439 7.73444L6.2772 8.67725ZM4.05941 7.40228L5.33439 8.67725L6.2772 7.73444L5.00222 6.45947L4.05941 7.40228ZM3.94156 7.40228C3.97411 7.36973 4.02687 7.36973 4.05941 7.40228L5.00222 6.45947C4.44898 5.90622 3.552 5.90622 2.99875 6.45947L3.94156 7.40228ZM3.94156 7.52013C3.90902 7.48758 3.90902 7.43482 3.94156 7.40228L2.99875 6.45947C2.44551 7.01271 2.44551 7.90969 2.99875 8.46294L3.94156 7.52013ZM5.74687 9.32543L3.94156 7.52013L2.99875 8.46294L4.80406 10.2682L5.74687 9.32543ZM5.86472 9.32543C5.83217 9.35797 5.77941 9.35797 5.74687 9.32543L4.80406 10.2682C5.3573 10.8215 6.25428 10.8215 6.80753 10.2682L5.86472 9.32543ZM10.4022 4.78793L5.86472 9.32543L6.80753 10.2682L11.345 5.73074L10.4022 4.78793Z" fill="#159951" mask="url(#path-1-inside-1_10067_137886)"/>
</svg>