<svg width="12" height="12" viewBox="0 0 12 12" fill="none" xmlns="http://www.w3.org/2000/svg">
<circle cx="6" cy="6" r="5.5" fill="#7CE3CB" stroke="#7CE3CB"/>
<path d="M3.85804 6.13047C3.82488 6.08601 3.78218 6.04947 3.73277 6.02411C3.68332 5.99873 3.62869 5.98533 3.57305 5.98525H3.57289L5.13274 8.046L5.21107 7.94119M3.85804 6.13047L3.75744 6.20548L3.85796 6.13037L3.85804 6.13047ZM3.85804 6.13047L5.21107 7.94119M5.21107 7.94119L5.28939 8.046L8.98738 4.0994L9.08791 4.17451L9.08767 4.17482C9.17372 4.06083 9.10413 3.87451 8.94106 3.87451H8.42711C8.31419 3.87451 8.20891 3.92919 8.14182 4.01991C8.14174 4.02002 8.14166 4.02013 8.14158 4.02024L5.21107 7.94119Z" fill="#404141" stroke="#404141" stroke-width="0.25097"/>
</svg>
