<svg width="12" height="9" viewBox="0 0 12 9" fill="none" xmlns="http://www.w3.org/2000/svg">
<path d="M1.95501 3.92389H1.95482H1.09823C0.885293 3.92389 0.76639 4.16921 0.897856 4.33595L0.897909 4.33602L4.25439 8.5883L4.25444 8.58836C4.47434 8.86667 4.89598 8.8659 5.11662 8.58883L5.11705 8.58828L11.1012 1.00514C11.1014 1.00491 11.1016 1.00469 11.1018 1.00446C11.2358 0.836705 11.1119 0.593143 10.9018 0.593143H10.0452C9.87746 0.593143 9.71775 0.670002 9.61414 0.802741C9.61405 0.802858 9.61396 0.802975 9.61387 0.803092L4.68511 7.04681L2.38563 4.1332C2.38561 4.13318 2.38559 4.13315 2.38557 4.13313C2.33427 4.06802 2.26889 4.01537 2.19434 3.97913C2.11976 3.94288 2.03793 3.92399 1.95501 3.92389Z" fill="#101211" stroke="#101211" stroke-width="0.313713"/>
</svg>
