<svg width="32" height="32" viewBox="0 0 32 32" fill="none" xmlns="http://www.w3.org/2000/svg">
    <path fill-rule="evenodd" clip-rule="evenodd"
        d="M27.4854 27.1399H4.51642C3.07244 27.1399 2.18959 25.5544 2.95006 24.3269L14.4692 5.73352C15.1908 4.56875 16.886 4.57104 17.6045 5.73775L29.0544 24.3311C29.8104 25.5588 28.9271 27.1399 27.4854 27.1399ZM17.0005 14.0006C17.0005 13.4484 16.5528 13.0006 16.0005 13.0006C15.4482 13.0006 15.0005 13.4484 15.0005 14.0006V19.3341C15.0005 19.8864 15.4482 20.3341 16.0005 20.3341C16.5528 20.3341 17.0005 19.8864 17.0005 19.3341V14.0006ZM16.0005 22.0009C15.4482 22.0009 15.0005 22.4486 15.0005 23.0009C15.0005 23.5532 15.4482 24.0009 16.0005 24.0009H16.0138C16.5661 24.0009 17.0138 23.5532 17.0138 23.0009C17.0138 22.4486 16.5661 22.0009 16.0138 22.0009H16.0005Z"
        fill="#EC0E4D" />
</svg>
    