<svg width="20" height="20" viewBox="0 0 20 20" fill="none" xmlns="http://www.w3.org/2000/svg">
<circle cx="10" cy="10" r="9.5" stroke="#C3C4C3"/>
<path d="M9.09766 11.4901H10.3164V11.4091C10.3335 10.429 10.6147 9.99006 11.3391 9.54261C12.1019 9.08239 12.5707 8.43466 12.5707 7.47585C12.5707 6.09091 11.5224 5.15341 9.95845 5.15341C8.52237 5.15341 7.3718 5.9929 7.31641 7.52699H8.61186C8.663 6.62358 9.30646 6.22727 9.95845 6.22727C10.6829 6.22727 11.271 6.70881 11.271 7.46307C11.271 8.09801 10.8746 8.54545 10.3675 8.8608C9.57493 9.34659 9.10618 9.82812 9.09766 11.4091V11.4901ZM9.74112 14.081C10.2056 14.081 10.5934 13.7017 10.5934 13.2287C10.5934 12.7642 10.2056 12.3807 9.74112 12.3807C9.27237 12.3807 8.88885 12.7642 8.88885 13.2287C8.88885 13.7017 9.27237 14.081 9.74112 14.081Z" fill="#C3C4C3"/>
</svg>
