<svg width="24" height="24" viewBox="0 0 24 24" fill="none" xmlns="http://www.w3.org/2000/svg">
<path d="M16.3822 8.27344H15.2829C15.0439 8.27344 14.8165 8.38828 14.6759 8.58516L10.9915 13.6945L9.32276 11.3789C9.18214 11.1844 8.95714 11.0672 8.71573 11.0672H7.61651C7.46416 11.0672 7.3751 11.2406 7.46416 11.3648L10.3845 15.4148C10.4535 15.5111 10.5444 15.5896 10.6498 15.6437C10.7551 15.6978 10.8719 15.7261 10.9903 15.7261C11.1088 15.7261 11.2255 15.6978 11.3309 15.6437C11.4363 15.5896 11.5272 15.5111 11.5962 15.4148L16.5322 8.57109C16.6236 8.44688 16.5345 8.27344 16.3822 8.27344Z" fill="#7CE3CB"/>
<path d="M12 1.5C6.20156 1.5 1.5 6.20156 1.5 12C1.5 17.7984 6.20156 22.5 12 22.5C17.7984 22.5 22.5 17.7984 22.5 12C22.5 6.20156 17.7984 1.5 12 1.5ZM12 20.7188C7.18594 20.7188 3.28125 16.8141 3.28125 12C3.28125 7.18594 7.18594 3.28125 12 3.28125C16.8141 3.28125 20.7188 7.18594 20.7188 12C20.7188 16.8141 16.8141 20.7188 12 20.7188Z" fill="#7CE3CB"/>
</svg>
