<svg width="23" height="29" viewBox="0 0 23 29" fill="none" xmlns="http://www.w3.org/2000/svg">
<path d="M19.8569 12.6899C20.9966 12.6899 22.1175 13.6553 22.1175 14.7794C22.2167 15.9646 21.7202 17.3489 19.0638 17.3489H12.7167H12.6339C12.5788 17.3489 12.4961 17.3771 12.4685 17.4336C12.4134 17.4901 12.3858 17.603 12.4134 17.7442V17.7725C12.441 18.1395 12.5512 18.8454 12.6339 19.5796C12.8523 21.5282 13.0594 23.2335 12.7442 25.1704C12.6064 26.0175 12.2756 26.7234 11.7793 27.2599C11.1177 27.9376 10.3182 28.1635 9.46356 27.8811C8.52623 27.5705 8.00242 26.8928 7.94729 25.961C7.91972 25.3116 7.91972 24.6904 7.89215 24.041C7.79611 22.4671 7.38785 21.7108 6.62399 20.3137C5.93478 19.0996 5.24556 17.8289 4.55635 16.5583C4.39094 16.2477 4.25309 16.163 3.78443 16.05C3.4536 16.0218 2.95737 15.9653 2.51627 15.9371C2.406 15.9371 2.32329 15.9089 2.21302 15.9089L1 15.8524V3.82365C3.2761 3.3574 5.48777 1 7.61646 1C8.60893 1 9.54627 1 10.456 1C11.3934 1 12.3307 1 13.268 1H16.273C16.4936 1 18.4509 1.05648 18.9196 3.0895C19.1126 3.93659 18.833 4.98134 17.9547 4.98134M19.8569 12.6899C21.1889 12.5927 21.4094 11.4276 21.1889 10.4675C20.9684 9.50749 20.1263 8.8215 18.8369 8.8215M19.8569 12.6899C18.7172 12.6899 16.9386 12.6899 16.9386 12.6899M18.8369 8.8215C19.595 8.34239 19.9948 7.97441 19.9672 6.732C19.9121 5.68725 19.3055 5.06605 17.9547 4.98134M18.8369 8.8215C18.0956 8.8215 16.9386 8.8215 16.9386 8.8215M17.9547 4.98134H16.9386" stroke="#D233F2" stroke-miterlimit="10" stroke-linecap="round" stroke-linejoin="round"/>
</svg>
