<svg xmlns="http://www.w3.org/2000/svg" width="25" height="30" viewBox="0 0 25 30" fill="none">
<path d="M4.21302 16.4089C4.32329 16.4089 4.406 16.4371 4.51627 16.4371C4.95737 16.4653 5.4536 16.5218 5.78443 16.55C6.25309 16.663 6.39094 16.7477 6.55635 17.0583C7.24556 18.3289 7.93478 19.5996 8.62399 20.8137C9.38785 22.2108 9.79611 22.9671 9.89215 24.541C9.91972 25.1904 9.91972 25.8116 9.94729 26.461C10.0024 27.3928 10.5262 28.0705 11.4636 28.3811C12.3182 28.6635 13.1177 28.4376 13.7793 27.7599C14.2756 27.2234 14.6064 26.5175 14.7442 25.6704C15.0594 23.7335 14.8523 22.0282 14.6339 20.0796C14.5512 19.3454 14.441 18.6395 14.4134 18.2725V18.2442C14.3858 18.103 14.4134 17.9901 14.4685 17.9336C14.4961 17.8771 14.5788 17.8489 14.6339 17.8489H14.7167H21.0638C23.7202 17.8489 24.2167 16.4646 24.1175 15.2794C24.1175 14.1553 22.9966 13.1899 21.8569 13.1899C23.1889 13.0927 23.4094 11.9276 23.1889 10.9675C22.9684 10.0075 22.1263 9.3215 20.8369 9.3215C21.595 8.84239 21.9948 8.47441 21.9672 7.232C21.9121 6.18725 21.3055 5.56605 19.9547 5.48134C20.833 5.48134 21.1126 4.43659 20.9196 3.5895C20.4509 1.55648 18.4936 1.5 18.273 1.5H15.268C14.3307 1.5 13.3934 1.5 12.456 1.5C11.5463 1.5 10.6089 1.5 9.61646 1.5C7.48777 1.5 5.2761 3.8574 3 4.32365V16.3524L4.21302 16.4089Z" fill="#FAFAFA"/>
<path d="M21.8569 13.1899C22.9966 13.1899 24.1175 14.1553 24.1175 15.2794C24.2167 16.4646 23.7202 17.8489 21.0638 17.8489H14.7167H14.6339C14.5788 17.8489 14.4961 17.8771 14.4685 17.9336C14.4134 17.9901 14.3858 18.103 14.4134 18.2442V18.2725C14.441 18.6395 14.5512 19.3454 14.6339 20.0796C14.8523 22.0282 15.0594 23.7335 14.7442 25.6704C14.6064 26.5175 14.2756 27.2234 13.7793 27.7599C13.1177 28.4376 12.3182 28.6635 11.4636 28.3811C10.5262 28.0705 10.0024 27.3928 9.94729 26.461C9.91972 25.8116 9.91972 25.1904 9.89215 24.541C9.79611 22.9671 9.38785 22.2108 8.62399 20.8137C7.93478 19.5996 7.24556 18.3289 6.55635 17.0583C6.39094 16.7477 6.25309 16.663 5.78443 16.55C5.4536 16.5218 4.95737 16.4653 4.51627 16.4371C4.406 16.4371 4.32329 16.4089 4.21302 16.4089L3 16.3524V4.32365C5.2761 3.8574 7.48777 1.5 9.61646 1.5C10.6089 1.5 11.5463 1.5 12.456 1.5C13.3934 1.5 14.3307 1.5 15.268 1.5H18.273C18.4936 1.5 20.4509 1.55648 20.9196 3.5895C21.1126 4.43659 20.833 5.48134 19.9547 5.48134M21.8569 13.1899C23.1889 13.0927 23.4094 11.9276 23.1889 10.9675C22.9684 10.0075 22.1263 9.3215 20.8369 9.3215M21.8569 13.1899C20.7172 13.1899 18.9386 13.1899 18.9386 13.1899M20.8369 9.3215C21.595 8.84239 21.9948 8.47441 21.9672 7.232C21.9121 6.18725 21.3055 5.56605 19.9547 5.48134M20.8369 9.3215C20.0956 9.3215 18.9386 9.3215 18.9386 9.3215M19.9547 5.48134H18.9386" stroke="#FF1659" stroke-width="1.5" stroke-miterlimit="10" stroke-linecap="round" stroke-linejoin="round"/>
</svg>