<svg width="23" height="29" viewBox="0 0 23 29" fill="none" xmlns="http://www.w3.org/2000/svg">
<path d="M19.3569 16.3101C20.4966 16.3101 21.6175 15.3447 21.6175 14.2206C21.7167 13.0354 21.2202 11.6511 18.5638 11.6511H12.2167H12.1339C12.0788 11.6511 11.9961 11.6229 11.9685 11.5664C11.9134 11.5099 11.8858 11.397 11.9134 11.2558V11.2275C11.941 10.8605 12.0512 10.1546 12.1339 9.42041C12.3523 7.47183 12.5594 5.76653 12.2442 3.82959C12.1064 2.9825 11.7756 2.27659 11.2793 1.74009C10.6177 1.06242 9.81818 0.836527 8.96356 1.11889C8.02623 1.42949 7.50242 2.10717 7.44729 3.03897C7.41972 3.68841 7.41972 4.30961 7.39215 4.95905C7.29611 6.53294 6.88785 7.28919 6.12399 8.68626C5.43478 9.90043 4.74556 11.1711 4.05635 12.4417C3.89094 12.7523 3.75309 12.837 3.28443 12.95C2.9536 12.9782 2.45737 13.0347 2.01627 13.0629C1.906 13.0629 1.82329 13.0911 1.71302 13.0911L0.5 13.1476V25.1764C2.7761 25.6426 4.98777 28 7.11646 28C8.10893 28 9.04627 28 9.95603 28C10.8934 28 11.8307 28 12.768 28H15.773C15.9936 28 17.9509 27.9435 18.4196 25.9105C18.6126 25.0634 18.333 24.0187 17.4547 24.0187M19.3569 16.3101C20.6889 16.4073 20.9094 17.5724 20.6889 18.5325C20.4684 19.4925 19.6263 20.1785 18.3369 20.1785M19.3569 16.3101C18.2172 16.3101 16.4386 16.3101 16.4386 16.3101M18.3369 20.1785C19.095 20.6576 19.4948 21.0256 19.4672 22.268C19.4121 23.3127 18.8055 23.9339 17.4547 24.0187M18.3369 20.1785C17.5956 20.1785 16.4386 20.1785 16.4386 20.1785M17.4547 24.0187H16.4386" stroke="#7CE3CB" stroke-miterlimit="10" stroke-linecap="round" stroke-linejoin="round"/>
</svg>
