<svg xmlns="http://www.w3.org/2000/svg" width="20" height="25" viewBox="0 0 20 25" fill="none">
<path d="M2.01085 11.408C2.10274 11.408 2.17167 11.3845 2.26356 11.3845C2.63114 11.3609 3.04467 11.3139 3.32036 11.2903C3.71091 11.1962 3.82578 11.1256 3.96362 10.8668C4.53797 9.80792 5.11232 8.74906 5.68666 7.73725C6.32321 6.57303 6.66342 5.94281 6.74346 4.63124C6.76643 4.09004 6.76643 3.57237 6.7894 3.03117C6.83535 2.25467 7.27186 1.68994 8.05297 1.43111C8.76515 1.1958 9.4314 1.38405 9.98277 1.94878C10.3963 2.39585 10.672 2.98411 10.7869 3.69002C11.0495 5.30414 10.8769 6.72522 10.695 8.34904C10.626 8.96083 10.5341 9.54909 10.5112 9.85498V9.87851C10.4882 9.99617 10.5112 10.0903 10.5571 10.1373C10.5801 10.1844 10.649 10.2079 10.695 10.2079H10.7639H16.0531C18.2668 10.2079 18.6806 11.3615 18.598 12.3492C18.598 13.286 17.6638 14.0905 16.7141 14.0905C17.8241 14.1715 18.0079 15.1424 17.8241 15.9424C17.6403 16.7425 16.9386 17.3141 15.8641 17.3141C16.4959 17.7134 16.829 18.02 16.806 19.0554C16.76 19.926 16.2546 20.4437 15.1289 20.5142C15.8608 20.5142 16.0938 21.3849 15.933 22.0908C15.5424 23.785 13.9113 23.832 13.7275 23.832H11.2234C10.4422 23.832 9.66113 23.832 8.88002 23.832C8.12189 23.832 7.34078 23.832 6.51372 23.832C4.73981 23.832 2.89675 21.8675 1 21.479V11.455L2.01085 11.408Z" fill="#FAFAFA"/>
<path d="M16.7141 14.0905C17.6638 14.0905 18.598 13.286 18.598 12.3492C18.6806 11.3615 18.2668 10.2079 16.0531 10.2079H10.7639H10.695C10.649 10.2079 10.5801 10.1844 10.5571 10.1373C10.5112 10.0903 10.4882 9.99617 10.5112 9.87851V9.85498C10.5341 9.54909 10.626 8.96083 10.695 8.34904C10.8769 6.72522 11.0495 5.30414 10.7869 3.69002C10.672 2.98411 10.3963 2.39585 9.98277 1.94878C9.4314 1.38405 8.76515 1.1958 8.05297 1.43111C7.27186 1.68994 6.83535 2.25467 6.7894 3.03117C6.76643 3.57237 6.76643 4.09004 6.74346 4.63124C6.66342 5.94281 6.32321 6.57303 5.68666 7.73725C5.11232 8.74906 4.53797 9.80792 3.96362 10.8668C3.82578 11.1256 3.71091 11.1962 3.32036 11.2903C3.04467 11.3139 2.63114 11.3609 2.26356 11.3845C2.17167 11.3845 2.10274 11.408 2.01085 11.408L1 11.455V21.479C2.89675 21.8675 4.73981 23.832 6.51372 23.832C7.34078 23.832 8.12189 23.832 8.88002 23.832C9.66113 23.832 10.4422 23.832 11.2234 23.832H13.7275C13.9113 23.832 15.5424 23.785 15.933 22.0908C16.0938 21.3849 15.8608 20.5142 15.1289 20.5142M16.7141 14.0905C17.8241 14.1715 18.0079 15.1424 17.8241 15.9424C17.6403 16.7425 16.9386 17.3141 15.8641 17.3141M16.7141 14.0905C15.7644 14.0905 14.2822 14.0905 14.2822 14.0905M15.8641 17.3141C16.4959 17.7134 16.829 18.02 16.806 19.0554C16.76 19.926 16.2546 20.4437 15.1289 20.5142M15.8641 17.3141C15.2463 17.3141 14.2822 17.3141 14.2822 17.3141M15.1289 20.5142H14.2822" stroke="#159951" stroke-width="1.25" stroke-miterlimit="10" stroke-linecap="round" stroke-linejoin="round"/>
</svg>